<svg xmlns="http://www.w3.org/2000/svg" fill="#707070" viewBox="0 0 18 18"><g><path d="M13.462 10.238c-.72-.062-.732-.642-.732-1.365a6.575 6.575 0 001.545-3.918C14.275 2.582 12.925 1 10.98 1a3.15 3.15 0 00-1.34.287 5.345 5.345 0 012.62 4.95 7.8 7.8 0 01-1.21 3.974.431.431 0 00.237.644 6.977 6.977 0 013.573 2.329A6.268 6.268 0 0115.89 15h1.628a.436.436 0 00.44-.431v-.03c-.289-3.145-3.511-4.215-4.496-4.301z"/><path d="M14.487 17a.466.466 0 00.471-.46v-.034c-.31-3.367-3.762-4.514-4.818-4.606-.772-.067-.785-.689-.785-1.462a7.046 7.046 0 001.656-4.2C11.011 3.7 9.564 2 7.48 2S3.951 3.7 3.951 6.239a7.046 7.046 0 001.656 4.2c0 .774-.013 1.4-.785 1.462-1.057.091-4.509 1.238-4.821 4.605A.465.465 0 00.437 17h14.05z"/></g></svg>